HIERARCHY
ROOT Hips
{
	OFFSET 0.000000 121.760803 0.000000
	CHANNELS 6 Xposition Yposition Zposition Xrotation Yrotation Zrotation 
	JOINT Spine
	{
		OFFSET 0.072000 7.257294 -0.789700
		CHANNELS 3 Xrotation Yrotation Zrotation
		JOINT Spine1
		{
			OFFSET 0.000000 12.508769 -0.658067
			CHANNELS 3 Xrotation Yrotation Zrotation
			JOINT Spine1_split
			{
				OFFSET 0.000000 12.508769 -0.658067
				CHANNELS 3 Xrotation Yrotation Zrotation
				JOINT Spine2
				{
					OFFSET 0.000000 12.508769 -0.658067
					CHANNELS 3 Xrotation Yrotation Zrotation
					JOINT Neck
					{
						OFFSET 0.000000 14.033295 7.520400
						CHANNELS 3 Xrotation Yrotation Zrotation
						JOINT Head
						{
							OFFSET 0.000000 8.198502 5.703100
							CHANNELS 3 Xrotation Yrotation Zrotation
							JOINT HeadTop_End
							{
								OFFSET 0.000000 17.760803 13.332701
								CHANNELS 3 Xrotation Yrotation Zrotation
								End Site
								{
									OFFSET 0.000000 0.000000 0.000000
								}
							}
						}
					}
					JOINT LeftShoulder
					{
						OFFSET 6.292450 5.785301 -0.669000
						CHANNELS 3 Xrotation Yrotation Zrotation
						JOINT LeftShoulder_split
						{
							OFFSET 6.292450 5.785301 -0.669000
							CHANNELS 3 Xrotation Yrotation Zrotation
							JOINT LeftArm
							{
								OFFSET 13.907140 -6.093903 1.965100
								CHANNELS 3 Xrotation Yrotation Zrotation
								JOINT LeftForeArm
								{
									OFFSET 34.140198 0.000000 0.000000
									CHANNELS 3 Xrotation Yrotation Zrotation
									JOINT LeftHand
									{
										OFFSET 40.960209 0.000000 0.000000
										CHANNELS 3 Xrotation Yrotation Zrotation
										JOINT LeftHandThumb1
										{
											OFFSET 10.006996 -7.170425 9.573125
											CHANNELS 3 Xrotation Yrotation Zrotation
											JOINT LeftHandThumb2
											{
												OFFSET 1.835007 -1.059448 1.059443
												CHANNELS 3 Xrotation Yrotation Zrotation
												JOINT LeftHandThumb3
												{
													OFFSET 2.112267 -1.219513 1.219518
													CHANNELS 3 Xrotation Yrotation Zrotation
													JOINT LeftHandThumb4
													{
														OFFSET 4.843811 -2.796570 2.796576
														CHANNELS 3 Xrotation Yrotation Zrotation
														End Site
														{
															OFFSET 0.000000 0.000000 0.000000
														}
													}
												}
											}
										}
										JOINT LeftHandIndex1
										{
											OFFSET 18.389847 -0.922348 4.596882
											CHANNELS 3 Xrotation Yrotation Zrotation
											JOINT LeftHandIndex2
											{
												OFFSET 4.711273 0.000000 0.000000
												CHANNELS 3 Xrotation Yrotation Zrotation
												JOINT LeftHandIndex3
												{
													OFFSET 2.886131 0.000000 0.000000
													CHANNELS 3 Xrotation Yrotation Zrotation
													JOINT LeftHandIndex4
													{
														OFFSET 6.145912 0.000000 0.000000
														CHANNELS 3 Xrotation Yrotation Zrotation
														End Site
														{
															OFFSET 0.000000 0.000000 0.000000
														}
													}
												}
											}
										}
										JOINT LeftHandMiddle1
										{
											OFFSET 18.013008 0.000000 0.000000
											CHANNELS 3 Xrotation Yrotation Zrotation
											JOINT LeftHandMiddle2
											{
												OFFSET 4.946693 0.000000 0.000000
												CHANNELS 3 Xrotation Yrotation Zrotation
												JOINT LeftHandMiddle3
												{
													OFFSET 3.342232 0.000000 0.000000
													CHANNELS 3 Xrotation Yrotation Zrotation
													JOINT LeftHandMiddle4
													{
														OFFSET 4.461754 0.000000 0.000000
														CHANNELS 3 Xrotation Yrotation Zrotation
														End Site
														{
															OFFSET 0.000000 0.000000 0.000000
														}
													}
												}
											}
										}
										JOINT LeftHandRing1
										{
											OFFSET 15.849892 -0.102921 -4.126150
											CHANNELS 3 Xrotation Yrotation Zrotation
											JOINT LeftHandRing2
											{
												OFFSET 3.527054 0.000000 0.000000
												CHANNELS 3 Xrotation Yrotation Zrotation
												JOINT LeftHandRing3
												{
													OFFSET 2.961098 0.000000 0.000000
													CHANNELS 3 Xrotation Yrotation Zrotation
													JOINT LeftHandRing4
													{
														OFFSET 4.927200 0.000000 0.000000
														CHANNELS 3 Xrotation Yrotation Zrotation
														End Site
														{
															OFFSET 0.000000 0.000000 0.000000
														}
													}
												}
											}
										}
										JOINT LeftHandPinky1
										{
											OFFSET 12.791824 -0.832031 -6.799156
											CHANNELS 3 Xrotation Yrotation Zrotation
											JOINT LeftHandPinky2
											{
												OFFSET 3.327133 0.000000 0.000000
												CHANNELS 3 Xrotation Yrotation Zrotation
												JOINT LeftHandPinky3
												{
													OFFSET 3.014900 0.000000 0.000000
													CHANNELS 3 Xrotation Yrotation Zrotation
													JOINT LeftHandPinky4
													{
														OFFSET 5.847786 0.000000 0.000000
														CHANNELS 3 Xrotation Yrotation Zrotation
														End Site
														{
															OFFSET 0.000000 0.000000 0.000000
														}
													}
												}
											}
										}
									}
								}
							}
						}
					}
					JOINT RightShoulder
					{
						OFFSET -6.292450 5.785301 -0.669000
						CHANNELS 3 Xrotation Yrotation Zrotation
						JOINT RightShoulder_split
						{
							OFFSET -6.292450 5.785301 -0.669000
							CHANNELS 3 Xrotation Yrotation Zrotation
							JOINT RightArm
							{
								OFFSET -13.907140 -6.093903 1.965100
								CHANNELS 3 Xrotation Yrotation Zrotation
								JOINT RightForeArm
								{
									OFFSET -34.140198 0.000000 0.000000
									CHANNELS 3 Xrotation Yrotation Zrotation
									JOINT RightHand
									{
										OFFSET -40.960209 0.000000 0.000000
										CHANNELS 3 Xrotation Yrotation Zrotation
										JOINT RightHandThumb1
										{
											OFFSET -10.007050 -7.170456 9.573117
											CHANNELS 3 Xrotation Yrotation Zrotation
											JOINT RightHandThumb2
											{
												OFFSET -1.835007 -1.059448 1.059443
												CHANNELS 3 Xrotation Yrotation Zrotation
												JOINT RightHandThumb3
												{
													OFFSET -2.112267 -1.219513 1.219518
													CHANNELS 3 Xrotation Yrotation Zrotation
													JOINT RightHandThumb4
													{
														OFFSET -4.843834 -2.796585 2.796590
														CHANNELS 3 Xrotation Yrotation Zrotation
														End Site
														{
															OFFSET 0.000000 0.000000 0.000000
														}
													}
												}
											}
										}
										JOINT RightHandIndex1
										{
											OFFSET -18.389870 -0.922424 4.596786
											CHANNELS 3 Xrotation Yrotation Zrotation
											JOINT RightHandIndex2
											{
												OFFSET -4.711273 0.000000 0.000000
												CHANNELS 3 Xrotation Yrotation Zrotation
												JOINT RightHandIndex3
												{
													OFFSET -2.886131 0.000000 0.000000
													CHANNELS 3 Xrotation Yrotation Zrotation
													JOINT RightHandIndex4
													{
														OFFSET -6.145920 0.000000 0.000000
														CHANNELS 3 Xrotation Yrotation Zrotation
														End Site
														{
															OFFSET 0.000000 0.000000 0.000000
														}
													}
												}
											}
										}
										JOINT RightHandMiddle1
										{
											OFFSET -18.013008 0.000000 0.000000
											CHANNELS 3 Xrotation Yrotation Zrotation
											JOINT RightHandMiddle2
											{
												OFFSET -4.946693 0.000000 0.000000
												CHANNELS 3 Xrotation Yrotation Zrotation
												JOINT RightHandMiddle3
												{
													OFFSET -3.342232 0.000000 0.000000
													CHANNELS 3 Xrotation Yrotation Zrotation
													JOINT RightHandMiddle4
													{
														OFFSET -4.461754 0.000000 0.000000
														CHANNELS 3 Xrotation Yrotation Zrotation
														End Site
														{
															OFFSET 0.000000 0.000000 0.000000
														}
													}
												}
											}
										}
										JOINT RightHandRing1
										{
											OFFSET -15.849876 -0.102936 -4.126237
											CHANNELS 3 Xrotation Yrotation Zrotation
											JOINT RightHandRing2
											{
												OFFSET -3.527054 0.000000 0.000000
												CHANNELS 3 Xrotation Yrotation Zrotation
												JOINT RightHandRing3
												{
													OFFSET -2.961098 0.000000 0.000000
													CHANNELS 3 Xrotation Yrotation Zrotation
													JOINT RightHandRing4
													{
														OFFSET -4.927200 0.000000 0.000000
														CHANNELS 3 Xrotation Yrotation Zrotation
														End Site
														{
															OFFSET 0.000000 0.000000 0.000000
														}
													}
												}
											}
										}
										JOINT RightHandPinky1
										{
											OFFSET -12.791786 -0.832077 -6.799222
											CHANNELS 3 Xrotation Yrotation Zrotation
											JOINT RightHandPinky2
											{
												OFFSET -3.327133 0.000000 0.000000
												CHANNELS 3 Xrotation Yrotation Zrotation
												JOINT RightHandPinky3
												{
													OFFSET -3.014900 0.000000 0.000000
													CHANNELS 3 Xrotation Yrotation Zrotation
													JOINT RightHandPinky4
													{
														OFFSET -5.847786 0.000000 0.000000
														CHANNELS 3 Xrotation Yrotation Zrotation
														End Site
														{
															OFFSET 0.000000 0.000000 0.000000
														}
													}
												}
											}
										}
									}
								}
							}
						}
					}
				}
			}
		}
	}
	JOINT LeftUpLeg
	{
		OFFSET 13.026900 -6.336304 -1.092800
		CHANNELS 3 Xrotation Yrotation Zrotation
		JOINT LeftLeg
		{
			OFFSET 0.524474 -46.096886 9.782700
			CHANNELS 3 Xrotation Yrotation Zrotation
			JOINT LeftFoot
			{
				OFFSET -0.524474 -53.427422 -12.948200
				CHANNELS 3 Xrotation Yrotation Zrotation
				JOINT LeftToeBase
				{
					OFFSET 0.192200 -14.009700 16.364100
					CHANNELS 3 Xrotation Yrotation Zrotation
					JOINT LeftToe_End
					{
						OFFSET -1.784700 -0.561700 9.474800
						CHANNELS 3 Xrotation Yrotation Zrotation
						End Site
						{
							OFFSET 0.000000 0.000000 0.000000
						}
					}
				}
			}
		}
	}
	JOINT RightUpLeg
	{
		OFFSET -12.883000 -6.336304 -1.092800
		CHANNELS 3 Xrotation Yrotation Zrotation
		JOINT RightLeg
		{
			OFFSET -0.524587 -46.096825 9.782800
			CHANNELS 3 Xrotation Yrotation Zrotation
			JOINT RightFoot
			{
				OFFSET 0.524587 -53.427383 -12.948300
				CHANNELS 3 Xrotation Yrotation Zrotation
				JOINT RightToeBase
				{
					OFFSET -0.192200 -14.009700 16.364100
					CHANNELS 3 Xrotation Yrotation Zrotation
					JOINT RightToe_End
					{
						OFFSET 1.784700 -0.561700 9.474800
						CHANNELS 3 Xrotation Yrotation Zrotation
						End Site
						{
							OFFSET 0.000000 0.000000 0.000000
						}
					}
				}
			}
		}
	}
}
MOTION
Frames: 4
Frame Time: 0.016667
-1.439222 114.361015 0.124784 -19.779698 -82.297441 -21.389391 2.270155 0.122769 0.464973 4.588851 0.048044 1.587649 0.000000 0.000000 0.000000 4.566499 0.058996 1.631779 -6.449450 9.163144 -4.228990 1.306331 37.856655 -3.127863 0.000000 -0.000000 0.000000 -0.232473 4.637867 -1.359673 0.000000 0.000000 0.000000 25.122250 -77.231223 -42.206242 0.000004 -14.145794 -0.000010 -51.489883 1.622347 10.545756 -3.708770 -5.344637 -9.285594 10.685388 16.536448 0.020103 2.736435 5.880165 2.697146 0.000000 -0.000000 -0.000000 0.013971 0.439250 -3.642311 0.025875 0.597748 -4.959540 0.006482 0.299144 -2.479688 -0.000000 0.000001 0.000000 0.013833 0.437323 -3.626332 0.026059 0.599662 -4.975520 0.006473 0.299167 -2.479721 0.000000 0.000000 0.000000 0.013973 0.439237 -3.642308 0.025878 0.597755 -4.959539 0.006487 0.299149 -2.479703 -0.000001 0.000000 -0.000000 0.254028 4.486452 -3.142206 0.013183 -3.456770 -5.468402 0.006481 0.299154 -2.479701 -0.000001 0.000001 -0.000001 1.612990 4.329180 7.043632 0.000000 0.000000 0.000000 8.595125 25.593742 60.579536 0.000005 32.803674 0.000001 -7.794411 -23.342749 -5.537469 37.238051 11.415884 9.503654 21.038871 -27.717302 1.484825 6.453884 -9.653865 -2.759930 -0.000001 0.000001 -0.000001 2.191286 -5.070350 46.723514 2.298130 -5.168482 47.920792 0.598773 -2.827568 23.908526 0.000001 -0.000004 -0.000001 2.191290 -5.070354 46.723514 2.298117 -5.168476 47.920781 0.598775 -2.827573 23.908519 -0.000000 0.000000 0.000002 2.191290 -5.070356 46.723521 2.298127 -5.168479 47.920775 0.598766 -2.827553 23.908515 0.000001 -0.000001 -0.000000 2.191284 -5.070352 46.723521 2.298116 -5.168478 47.920781 0.598772 -2.827579 23.908515 0.000000 -0.000005 0.000000 -17.004861 14.895551 9.626995 25.422869 -2.950706 4.692605 -7.020210 0.976809 -6.760067 -0.000075 0.000014 0.000001 -0.000000 0.000002 0.000000 -12.528941 -23.636816 -7.409983 22.182482 8.900722 -8.422241 -7.829699 -1.324578 9.934966 -0.001927 0.000008 0.000002 0.000000 0.000001 0.000000 
-1.446328 114.373199 0.119826 -19.896391 -82.288418 -21.501193 2.265381 0.113229 0.466259 4.580604 0.031462 1.605108 0.000000 0.000000 0.000000 4.558148 0.042192 1.649044 -6.406088 9.181267 -4.285427 1.307515 37.876773 -3.128333 -0.000000 0.000001 -0.000000 -0.234248 4.680281 -1.477821 0.000000 0.000000 0.000000 26.581629 -77.401978 -40.727475 0.000004 -14.148547 0.000008 -51.846491 1.696101 10.532942 -3.708772 -5.344636 -9.285595 10.685385 16.536446 0.020102 2.736439 5.880166 2.697146 -0.000000 -0.000000 0.000000 0.013968 0.439247 -3.642311 0.025877 0.597745 -4.959537 0.006486 0.299143 -2.479690 -0.000000 0.000000 0.000000 0.013831 0.437321 -3.626333 0.026061 0.599657 -4.975520 0.006475 0.299168 -2.479722 0.000001 0.000000 -0.000000 0.013969 0.439233 -3.642309 0.025878 0.597755 -4.959536 0.006484 0.299151 -2.479703 0.000001 0.000001 -0.000000 0.254026 4.486451 -3.142208 0.013180 -3.456771 -5.468401 0.006480 0.299153 -2.479701 0.000000 0.000000 -0.000001 1.618817 4.365946 6.951332 0.000000 0.000000 0.000000 8.569717 25.644828 60.639178 0.000011 32.733938 0.000004 -7.806385 -23.236720 -5.557184 37.238205 11.416000 9.503724 21.038948 -27.717389 1.484845 6.453926 -9.653910 -2.759926 0.000001 -0.000001 -0.000000 2.191286 -5.070370 46.723518 2.298118 -5.168465 47.920771 0.598777 -2.827556 23.908522 -0.000000 0.000000 0.000001 2.191288 -5.070370 46.723518 2.298120 -5.168469 47.920768 0.598775 -2.827553 23.908524 -0.000002 0.000002 -0.000000 2.191282 -5.070366 46.723521 2.298124 -5.168486 47.920778 0.598770 -2.827553 23.908522 0.000002 0.000001 -0.000001 2.191287 -5.070369 46.723514 2.298116 -5.168469 47.920768 0.598776 -2.827559 23.908521 -0.000002 -0.000002 -0.000002 -16.968049 14.909313 9.611905 25.390091 -2.951400 4.704576 -7.005779 0.978446 -6.763279 -0.000003 -0.000017 -0.000001 -0.000000 0.000000 -0.000000 -12.488869 -23.650691 -7.406016 22.152482 8.912085 -8.423187 -7.822388 -1.326993 9.934198 -0.001955 -0.000017 0.000002 -0.000000 -0.000000 0.000000 
-1.453781 114.385956 0.115178 -20.011367 -82.278965 -21.616826 2.258664 0.101075 0.472814 4.568350 0.010020 1.625759 0.000000 0.000000 0.000000 4.545688 0.020619 1.669544 -6.358688 9.200897 -4.344190 1.308286 37.902567 -3.127767 0.000000 -0.000001 -0.000000 -0.236516 4.731587 -1.616346 0.000000 0.000000 0.000000 28.225012 -77.569086 -39.068177 0.000003 -14.159487 -0.000003 -52.203218 1.758413 10.523202 -3.708772 -5.344638 -9.285595 10.685391 16.536446 0.020102 2.736438 5.880167 2.697146 0.000002 0.000000 -0.000000 0.013966 0.439248 -3.642311 0.025876 0.597749 -4.959543 0.006483 0.299145 -2.479688 -0.000002 -0.000001 0.000000 0.013832 0.437322 -3.626333 0.026059 0.599660 -4.975521 0.006472 0.299168 -2.479722 0.000000 0.000001 0.000000 0.013968 0.439234 -3.642307 0.025877 0.597755 -4.959537 0.006484 0.299151 -2.479704 0.000002 -0.000001 0.000000 0.254025 4.486450 -3.142209 0.013185 -3.456771 -5.468402 0.006481 0.299152 -2.479700 -0.000003 -0.000001 -0.000001 1.625857 4.410183 6.848794 0.000000 0.000000 0.000000 8.546706 25.709177 60.700977 -0.000004 32.649653 0.000003 -7.850800 -23.139279 -5.600582 37.238383 11.416116 9.503759 21.039027 -27.717487 1.484838 6.453957 -9.653958 -2.759952 -0.000000 -0.000001 -0.000000 2.191294 -5.070368 46.723524 2.298123 -5.168469 47.920771 0.598770 -2.827556 23.908527 -0.000000 -0.000002 -0.000000 2.191285 -5.070363 46.723518 2.298122 -5.168474 47.920781 0.598769 -2.827551 23.908527 0.000000 0.000002 0.000001 2.191283 -5.070364 46.723518 2.298128 -5.168483 47.920771 0.598770 -2.827556 23.908519 -0.000000 0.000001 -0.000001 2.191285 -5.070358 46.723521 2.298124 -5.168482 47.920781 0.598769 -2.827555 23.908529 0.000000 0.000001 0.000003 -16.929495 14.908626 9.605539 25.357996 -2.948083 4.709465 -6.993758 0.979402 -6.767808 -0.000001 -0.000000 -0.000002 0.000000 -0.000000 -0.000000 -12.442518 -23.657895 -7.398095 22.116793 8.917194 -8.415041 -7.812986 -1.329195 9.931250 -0.001974 -0.000009 -0.000003 -0.000000 0.000001 0.000000 
-1.460950 114.399284 0.111243 -20.115588 -82.267996 -21.726765 2.250915 0.087067 0.485160 4.553621 -0.015309 1.649033 0.000000 0.000000 0.000000 4.530658 -0.004754 1.692760 -6.309806 9.221835 -4.404453 1.308204 37.933310 -3.125744 0.000000 -0.000001 -0.000000 -0.239163 4.791731 -1.775042 0.000000 0.000000 0.000000 30.042590 -77.727184 -37.237283 0.000001 -14.178587 -0.000005 -52.563736 1.800022 10.528915 -3.708768 -5.344635 -9.285597 10.685390 16.536450 0.020101 2.736435 5.880165 2.697145 -0.000001 -0.000000 -0.000001 0.013968 0.439251 -3.642311 0.025879 0.597748 -4.959541 0.006483 0.299144 -2.479689 0.000000 -0.000000 0.000000 0.013830 0.437325 -3.626333 0.026062 0.599660 -4.975520 0.006471 0.299169 -2.479723 0.000001 -0.000001 0.000000 0.013967 0.439236 -3.642306 0.025878 0.597757 -4.959537 0.006484 0.299151 -2.479704 -0.000001 0.000001 -0.000000 0.254025 4.486452 -3.142209 0.013185 -3.456770 -5.468401 0.006481 0.299152 -2.479701 0.000001 -0.000001 -0.000000 1.633872 4.460070 6.738924 0.000000 0.000000 0.000000 8.526320 25.781080 60.764792 0.000007 32.555257 -0.000004 -7.926603 -23.053080 -5.669095 37.238533 11.416237 9.503810 21.039117 -27.717567 1.484857 6.454004 -9.653995 -2.759932 -0.000000 -0.000002 -0.000000 2.191270 -5.070356 46.723494 2.298123 -5.168470 47.920775 0.598770 -2.827549 23.908515 -0.000000 0.000002 -0.000001 2.191264 -5.070360 46.723497 2.298126 -5.168475 47.920771 0.598773 -2.827551 23.908519 -0.000000 0.000002 0.000000 2.191262 -5.070360 46.723497 2.298121 -5.168474 47.920764 0.598772 -2.827557 23.908515 0.000001 0.000001 -0.000001 2.191266 -5.070358 46.723504 2.298124 -5.168474 47.920771 0.598767 -2.827548 23.908519 0.000001 -0.000000 -0.000002 -16.890517 14.893876 9.605403 25.326574 -2.941430 4.709567 -6.983422 0.979821 -6.773732 -0.000105 0.000019 0.000001 -0.000000 0.000000 -0.000000 -12.391587 -23.659866 -7.387858 22.075742 8.916831 -8.397510 -7.801344 -1.331409 9.926081 -0.002002 -0.000007 -0.000002 0.000000 0.000000 0.000000 
